<?xml version="1.0" encoding="UTF-8"?>
<svg width="227.37mm" height="150.37mm" version="1.1" viewBox="0 0 805.63464 532.81756" xmlns="http://www.w3.org/2000/svg">
 <g transform="translate(63.532 -39.525)">
  <rect x="-63.532" y="39.525" width="805.63" height="532.82" fill="#ffcdd2" fill-rule="evenodd"/>
  <path d="m-63.532 39.525h805.63v532.82h-65.635z" fill="#f48fb1" fill-rule="evenodd"/>
  <g transform="translate(18.183 2.0203)">
   <path d="m507.33 214.25 47.373 1.0711 3.8949 37.073h-55.358z" fill="#f2f2f2"/>
   <path d="m507.33 214.25-1.2376 11.543h49.711l-1.1002-10.471-47.373-1.0714z" fill="#ccc"/>
   <rect transform="scale(1,-1)" x="423.78" y="-223.14" width="214.28" height="140.69" ry="9.7563" fill="#fff" fill-rule="evenodd"/>
   <path d="m423.75 79.473v124.05h214.34v-124.05zm5.0524 6.4105h203.31l-27.266 102.17-152.35-10.19z" fill="#333" fill-rule="evenodd"/>
   <rect x="423.76" y="70.389" width="214.33" height="59.064" ry="11.091" fill="#333"/>
   <rect x="432.42" y="79.813" width="197" height="113.51" fill="#666" fill-rule="evenodd"/>
   <rect x="487.27" y="246.78" width="87.305" height="5.6164" ry="1.6235" fill="#fff"/>
   <circle cx="530.92" cy="213.58" r="5.5082" fill="#333"/>
  </g>
  <g transform="translate(13.183 13.092)" fill-rule="evenodd">
   <rect x="613.55" y="163.19" width="83.382" height="125.22" ry="5.7394" fill="#fff"/>
   <rect x="619.97" y="172.07" width="70.549" height="105.32" fill="#ccc"/>
   <rect x="639.18" y="166.55" width="2.3614" height="1.959" ry=".86495" fill="#b3b3b3"/>
   <rect x="646.19" y="166.72" width="17.884" height="1.7134" ry=".35696" fill="#b3b3b3"/>
   <path d="m655.24 279.59a3.5159 3.5159 0 0 0 -3.5162 3.5161 3.5159 3.5159 0 0 0 3.5162 3.5161 3.5159 3.5159 0 0 0 3.5161 -3.5161 3.5159 3.5159 0 0 0 -3.5161 -3.5161zm0 0.99547a2.5208 2.5208 0 0 1 2.5205 2.5206 2.5208 2.5208 0 0 1 -2.5205 2.5206 2.5208 2.5208 0 0 1 -2.5207 -2.5206 2.5208 2.5208 0 0 1 2.5207 -2.5206z" fill="#b3b3b3"/>
   <rect x="620.45" y="172.5" width="70.067" height="104.88" fill="#ccc"/>
  </g>
  <g transform="translate(18.183 2.0203)" fill-rule="evenodd">
   <rect x="310.8" y="173.68" width="168.93" height="103.99" ry="5.1014" fill="#fff"/>
   <rect x="310.8" y="273.27" width="168.93" height="1.0347" ry="0" fill="#ececec"/>
   <path d="m294.03 274.22c-0.94438 1.6462-0.52469 2.6104 0 3.5221 1.1571 2.0105 20.63 4.1879 24.188 4.1879h154.12c3.5581 0 22.981-2.2492 24.255-4.1879 0.86623-1.3184 0.35517-2.4072 0-3.5221z" fill="#fff"/>
   <rect x="316.8" y="179.27" width="156.94" height="87.426" ry="0" fill="#b3b3b3"/>
   <path d="m375.23 274.31v1.48c0 0.97477 0.56818 1.7598 1.2737 1.7598h37.619c0.70549 0 1.2734-0.78499 1.2734-1.7598v-1.48h-40.166z" fill="#e6e6e6"/>
   <path d="m294.24 278.15c2.1724 2.1275 6.8988 3.7817 10.247 3.7817h183.39c3.3476 0 6.317-1.6541 8.4967-3.7817z" fill="#e6e6e6"/>
   <rect x="394.2" y="175.89" width="2.1387" height="1.6117" ry=".71161" fill="#b0bec5"/>
   <rect x="317.28" y="179.78" width="156.46" height="86.911" ry="0" fill="#ccc"/>
  </g>
  <g transform="translate(154.78 -367.24)">
   <g transform="matrix(.54529 0 0 .54529 -1613.7 -23.611)">
    <path d="m2878.3 1545.8 86.877 1.9643 7.1429 67.989h-101.52z" fill="#f2f2f2"/>
    <path d="m2878.3 1545.8-2.2696 21.168h91.164l-2.0176-19.203-86.877-1.9649z" fill="#ccc"/>
    <rect transform="scale(1,-1)" x="2725.1" y="-1562.1" width="392.96" height="258.02" ry="17.892" fill="#fff" fill-rule="evenodd"/>
    <path d="m2725 1298.6v227.49h393.08v-227.49zm9.2656 11.756h372.84l-50.003 187.37-279.4-18.688z" fill="#333" fill-rule="evenodd"/>
    <rect x="2725" y="1281.9" width="393.05" height="108.32" ry="20.34" fill="#333"/>
    <rect x="2841.5" y="1605.4" width="160.11" height="10.3" ry="2.9773" fill="#fff"/>
    <circle cx="2921.6" cy="1544.5" r="10.102" fill="#333"/>
    <rect x="2740.9" y="1299.2" width="361.28" height="208.17" fill="#4d4d4d" fill-rule="evenodd"/>
    <rect x="2743.7" y="1301.7" width="358.49" height="202.5" fill="#666" fill-rule="evenodd"/>
    <path d="m2921.9 1281.9 117.28 244.14h78.891v-227.49h-0.3535c-1.7238-9.4976-9.9942-16.658-20.004-16.658h-124.54z" fill="#fff" fill-opacity=".20497" fill-rule="evenodd"/>
   </g>
  </g>
  <g transform="matrix(.47918 0 0 .47918 -805.17 -263.31)" fill-rule="evenodd">
   <rect x="2102.4" y="1377.5" width="376.56" height="231.8" ry="11.371" fill="#fff"/>
   <rect x="2102.4" y="1599.5" width="376.56" height="2.3064" ry="0" fill="#ececec"/>
   <path d="m2065.1 1601.6c-2.1051 3.6695-1.1696 5.8187 0 7.8509 2.5793 4.4815 45.985 9.3351 53.917 9.3351h343.55c7.9313 0 51.226-5.0136 54.066-9.3351 1.9309-2.9388 0.7917-5.3659 0-7.8509z" fill="#fff"/>
   <rect x="2115.8" y="1389.9" width="349.83" height="194.88" ry="0" fill="#b3b3b3"/>
   <path d="m2246.1 1601.8v3.299c0 2.1728 1.2665 3.9226 2.8391 3.9226h83.855c1.5726 0 2.8386-1.7498 2.8386-3.9226v-3.299h-89.532z" fill="#e6e6e6"/>
   <path d="m2065.5 1610.3c4.8424 4.7424 15.378 8.4296 22.84 8.4296h408.79c7.462 0 14.081-3.6872 18.94-8.4296z" fill="#e6e6e6"/>
   <rect x="2288.3" y="1382.4" width="4.7674" height="3.5927" ry="1.5862" fill="#b0bec5"/>
   <rect x="2116.9" y="1391.1" width="348.76" height="193.73" ry="0" fill="#ccc"/>
   <path d="m2310.7 1377.5 111.35 231.8h45.582c6.2997 0 11.371-5.0713 11.371-11.371v-209.06c0-6.2998-5.0714-11.371-11.371-11.371h-156.93z" fill="#fff" fill-opacity=".20497"/>
  </g>
  <g transform="matrix(.54529 0 0 .54529 -1415.7 -365.04)" fill-rule="evenodd">
   <rect x="2547" y="1391" width="152.91" height="229.64" ry="10.525" fill="#fff"/>
   <rect x="2558.8" y="1407.3" width="129.38" height="193.14" fill="#ccc"/>
   <rect x="2594" y="1397.1" width="4.3306" height="3.5927" ry="1.5862" fill="#b3b3b3"/>
   <rect x="2606.9" y="1397.5" width="32.798" height="3.1422" ry=".65462" fill="#b3b3b3"/>
   <path d="m2623.5 1604.4a6.4478 6.4478 0 0 0 -6.4484 6.4482 6.4478 6.4478 0 0 0 6.4484 6.4482 6.4478 6.4478 0 0 0 6.4482 -6.4482 6.4478 6.4478 0 0 0 -6.4482 -6.4482zm0 1.8256a4.623 4.623 0 0 1 4.6224 4.6226 4.623 4.623 0 0 1 -4.6224 4.6226 4.623 4.623 0 0 1 -4.6227 -4.6226 4.623 4.623 0 0 1 4.6227 -4.6226z" fill="#b3b3b3"/>
   <rect x="2559.6" y="1408.1" width="128.5" height="192.34" fill="#ccc"/>
   <path d="m2570.2 1391 110.31 229.64h8.8457c5.8311 0 10.525-4.6943 10.525-10.525v-208.59c0-5.8311-4.6943-10.525-10.525-10.525h-119.16z" fill="#fff" fill-opacity=".20497"/>
  </g>
  <g transform="matrix(.54529 0 0 .54529 -1674.3 -334.74)" fill-rule="evenodd">
   <rect x="3139.6" y="1470.2" width="81.244" height="145.43" ry="6.6656" fill="#fff"/>
   <rect x="3142.2" y="1483.5" width="76.519" height="116.29" fill="#ccc"/>
   <rect x="3164.6" y="1474.7" width="2.3009" height="2.2752" ry="1.0045" fill="#b3b3b3"/>
   <rect x="3171.4" y="1474.9" width="17.426" height="1.9899" ry=".41456" fill="#b3b3b3"/>
   <path d="m3180.3 1602.9a5.3773 5.3773 0 0 0 -5.3777 5.3776 5.3773 5.3773 0 0 0 5.3777 5.3776 5.3773 5.3773 0 0 0 5.3776 -5.3776 5.3773 5.3773 0 0 0 -5.3776 -5.3776zm0 1.5225a3.8554 3.8554 0 0 1 3.855 3.8551 3.8554 3.8554 0 0 1 -3.855 3.8551 3.8554 3.8554 0 0 1 -3.8551 -3.8551 3.8554 3.8554 0 0 1 3.8551 -3.8551z" fill="#b3b3b3"/>
   <rect x="3143.7" y="1484.8" width="75.019" height="114.91" fill="#b3b3b3"/>
   <path d="m3160.2 1470.2 60.682 126.33v-119.66c0-3.6927-2.9714-6.6641-6.6641-6.6641h-54.018z" fill="#fff" fill-opacity=".20497"/>
  </g>
  <g transform="translate(18.183 11.306)" fill-rule="evenodd">
   <rect x="582.69" y="217.31" width="44.301" height="79.3" ry="3.6347" fill="#fff"/>
   <rect x="584.05" y="224.57" width="41.725" height="63.411" fill="#ccc"/>
   <rect x="596.3" y="219.78" width="1.2546" height="1.2406" ry=".54776" fill="#b3b3b3"/>
   <rect x="600.03" y="219.89" width="9.5021" height="1.0851" ry=".22605" fill="#b3b3b3"/>
   <path d="m604.84 289.67a2.9322 2.9322 0 0 0 -2.9324 2.9323 2.9322 2.9322 0 0 0 2.9324 2.9323 2.9322 2.9322 0 0 0 2.9323 -2.9323 2.9322 2.9322 0 0 0 -2.9323 -2.9323zm0 0.8302a2.1023 2.1023 0 0 1 2.1021 2.1021 2.1023 2.1023 0 0 1 -2.1021 2.1021 2.1023 2.1023 0 0 1 -2.1021 -2.1021 2.1023 2.1023 0 0 1 2.1021 -2.1021z" fill="#b3b3b3"/>
   <rect x="584.87" y="225.32" width="40.907" height="62.661" fill="#b3b3b3"/>
  </g>
 </g>
</svg>
